<svg xmlns="http://www.w3.org/2000/svg" version="1.1" width="512" height="512">
<path d="M0 0 C1.45108658 0.00273422 1.45108658 0.00273422 2.93148804 0.00552368 C17.26440977 0.05095174 31.21023917 0.55983928 45.3125 3.3125 C46.65803955 3.55395752 46.65803955 3.55395752 48.03076172 3.80029297 C107.84088904 14.62287989 165.35495829 48.68064457 202.3125 97.3125 C202.72918945 97.85277832 203.14587891 98.39305664 203.57519531 98.94970703 C211.2584873 108.9447116 218.00092968 119.40459036 224.3125 130.3125 C224.70679199 130.98974121 225.10108398 131.66698242 225.50732422 132.36474609 C238.68961173 155.2833756 247.29510918 180.85822563 252.625 206.6875 C252.77243652 207.39817627 252.91987305 208.10885254 253.07177734 208.84106445 C256.05713787 224.48358366 256.6873098 240.11919606 256.625 256 C256.62226578 257.45108658 256.62226578 257.45108658 256.61947632 258.93148804 C256.57404826 273.26440977 256.06516072 287.21023917 253.3125 301.3125 C253.15152832 302.20952637 252.99055664 303.10655273 252.82470703 304.03076172 C242.00212011 363.84088904 207.94435543 421.35495829 159.3125 458.3125 C158.77222168 458.72918945 158.23194336 459.14587891 157.67529297 459.57519531 C147.6802884 467.2584873 137.22040964 474.00092968 126.3125 480.3125 C125.63525879 480.70679199 124.95801758 481.10108398 124.26025391 481.50732422 C86.65686251 503.13596116 43.74617007 512.78895955 0.6875 512.625 C-0.83935928 512.62176727 -0.83935928 512.62176727 -2.39706421 512.61846924 C-17.00613523 512.56879854 -31.33825853 512.31790191 -45.6875 509.3125 C-47.14978027 509.01448486 -47.14978027 509.01448486 -48.64160156 508.71044922 C-108.22582385 496.24649799 -164.47712629 464.27705313 -201.6875 415.3125 C-202.10418945 414.77222168 -202.52087891 414.23194336 -202.95019531 413.67529297 C-210.6334873 403.6802884 -217.37592968 393.22040964 -223.6875 382.3125 C-224.08179199 381.63525879 -224.47608398 380.95801758 -224.88232422 380.26025391 C-238.06461173 357.3416244 -246.67010918 331.76677437 -252 305.9375 C-252.14743652 305.22682373 -252.29487305 304.51614746 -252.44677734 303.78393555 C-255.43213787 288.14141634 -256.0623098 272.50580394 -256 256.625 C-255.99817719 255.65760895 -255.99635437 254.6902179 -255.99447632 253.69351196 C-255.94904826 239.36059023 -255.44016072 225.41476083 -252.6875 211.3125 C-252.44604248 209.96696045 -252.44604248 209.96696045 -252.19970703 208.59423828 C-241.37712011 148.78411096 -207.31935543 91.27004171 -158.6875 54.3125 C-158.14722168 53.89581055 -157.60694336 53.47912109 -157.05029297 53.04980469 C-147.0552884 45.3665127 -136.59540964 38.62407032 -125.6875 32.3125 C-125.01025879 31.91820801 -124.33301758 31.52391602 -123.63525391 31.11767578 C-100.7166244 17.93538827 -75.14177437 9.32989082 -49.3125 4 C-48.60182373 3.85256348 -47.89114746 3.70512695 -47.15893555 3.55322266 C-31.51641634 0.56786213 -15.88080394 -0.0623098 0 0 Z " fill="#673389" transform="translate(255.6875,-0.3125)"/>
<path d="M0 0 C0.66 0 1.32 0 2 0 C2.27972656 0.77601563 2.55945313 1.55203125 2.84765625 2.3515625 C7.56694137 15.06783558 12.84639289 26.82118889 22 37 C22.54140625 37.63421875 23.0828125 38.2684375 23.640625 38.921875 C32.41125398 48.54402136 43.39649867 52.42456233 56 54 C56.33 60.27 56.66 66.54 57 73 C59.413125 72.9071875 59.413125 72.9071875 61.875 72.8125 C71.47417038 72.84941989 79.73231 75.60712454 87 82 C93.14555903 88.79060817 95.93786126 95.37186748 96.0234375 104.5 C95.46400841 113.92196368 92.09134882 122.62429188 85 129 C76.22450497 135.59917226 67.85677831 136.85320923 57 136 C54.10192274 135.2516905 51.73152143 134.2607022 49 133 C48.34 133 47.68 133 47 133 C46.27296875 134.54107422 46.27296875 134.54107422 45.53125 136.11328125 C38.3468606 151.07608065 29.08200228 163.53758758 17 175 C16.21496094 175.75990234 16.21496094 175.75990234 15.4140625 176.53515625 C6.53467378 184.7588939 -4.0959639 190.87840729 -15 196 C-11.37 196.33 -7.74 196.66 -4 197 C-4.51736124 202.60474681 -5.28963537 207.6408575 -7 213 C-6.46375 213.0515625 -5.9275 213.103125 -5.375 213.15625 C7.81762127 215.06570834 19.78344839 222.81642156 30 231 C30.63035156 231.47824219 31.26070312 231.95648438 31.91015625 232.44921875 C48.34186173 245.51223746 58.0961394 266.08278157 63 286 C63.26804443 287.02033325 63.26804443 287.02033325 63.54150391 288.0612793 C64.22024415 292.4116501 64.12187981 296.71733114 64.09765625 301.11328125 C64.09553383 302.56760811 64.09553383 302.56760811 64.09336853 304.05131531 C64.08778513 307.13840867 64.07523564 310.22542867 64.0625 313.3125 C64.05748286 315.40950416 64.05292032 317.50650946 64.04882812 319.60351562 C64.03782112 324.73570521 64.02056788 329.86784018 64 335 C54.4833168 340.16630019 45.03880855 345.17634532 34.9375 349.125 C33.36222534 349.74592529 33.36222534 349.74592529 31.75512695 350.37939453 C1.40746945 362.08171585 -29.20602914 367.43594552 -61.625 367.3125 C-62.64290619 367.31034485 -63.66081238 367.3081897 -64.70956421 367.30596924 C-79.31863523 367.25629854 -93.65075853 367.00540191 -108 364 C-109.46228027 363.70198486 -109.46228027 363.70198486 -110.95410156 363.39794922 C-137.91708936 357.75777549 -164.10170636 348.84058317 -188 335 C-188.05036085 330.18434077 -188.08616083 325.36884288 -188.10986328 320.55297852 C-188.11976961 318.92306847 -188.1332984 317.29317542 -188.15087891 315.66333008 C-188.24196558 306.98598465 -188.12233297 298.42198064 -187.12890625 289.79296875 C-187.05249908 289.12080826 -186.97609192 288.44864777 -186.89736938 287.75611877 C-183.88861446 264.33944774 -169.25211291 242.83035812 -150.8671875 228.48828125 C-140.74794781 221.1661287 -129.452738 214.96622179 -117 213 C-117.2165625 212.26394531 -117.433125 211.52789062 -117.65625 210.76953125 C-117.9346875 209.79371094 -118.213125 208.81789063 -118.5 207.8125 C-118.7784375 206.84957031 -119.056875 205.88664063 -119.34375 204.89453125 C-120 202 -120 202 -120 197 C-116.37 196.67 -112.74 196.34 -109 196 C-110.38058594 195.30777344 -110.38058594 195.30777344 -111.7890625 194.6015625 C-137.26348048 181.58937645 -155.28622558 163.64930648 -168.37109375 138.1171875 C-169.953151 134.95514541 -169.953151 134.95514541 -172 132 C-172.73089844 132.433125 -172.73089844 132.433125 -173.4765625 132.875 C-181.06897954 136.85066565 -189.30847405 137.51207704 -197.6171875 135.3046875 C-199.89510885 134.36671988 -201.90636701 133.29586568 -204 132 C-204.69738281 131.5875 -205.39476562 131.175 -206.11328125 130.75 C-212.80872158 126.31159135 -217.03628235 119.75800974 -219.4375 112.125 C-221.18343911 103.34185735 -219.39749163 94.56052488 -214.78515625 87.01171875 C-210.08617112 80.09991514 -203.28010802 74.80002348 -195 73 C-192.66787973 72.92477031 -190.3314689 72.90674124 -188 73 C-187.71125 73.804375 -187.4225 74.60875 -187.125 75.4375 C-186.26737432 78.1326468 -186.26737432 78.1326468 -184 79 C-180.32670036 79.13357453 -177.50147041 79.1671568 -174 78 C-173.26356605 76.02462422 -172.60882456 74.01836 -172 72 C-164.48416395 55.59424153 -153.75885816 44.82180809 -137.0546875 38.04296875 C-129.7766661 35.55801771 -123.43528169 34.70941879 -115.7890625 34.69140625 C-113.8007787 34.66621648 -111.81249751 34.64081895 -109.82421875 34.61523438 C-106.74008061 34.58674518 -103.65598864 34.5626908 -100.57177734 34.54370117 C-84.17131927 34.42340118 -68.18333699 33.58145229 -52.5 28.3125 C-51.72503174 28.05903809 -50.95006348 27.80557617 -50.15161133 27.54443359 C-32.50838468 21.59374895 -13.33277319 13.33277319 0 0 Z " fill="#F5B996" transform="translate(318,145)"/>
<path d="M0 0 C7.79379859 1.20227497 14.69808644 3.60561754 21.9375 6.6875 C23.52908936 7.36123657 23.52908936 7.36123657 25.15283203 8.04858398 C36.76955044 13.06265298 45.92765594 19.08300429 55 28 C55.6496875 28.63679688 56.299375 29.27359375 56.96875 29.9296875 C63.1956447 36.51162444 66.74280028 44.63526645 70 53 C70.31227539 52.5059668 70.62455078 52.01193359 70.94628906 51.50292969 C72.37552688 49.24852126 73.81266997 46.99925692 75.25 44.75 C75.74113281 43.97269531 76.23226562 43.19539063 76.73828125 42.39453125 C79.20752505 38.54251093 81.54448104 35.0606025 85 32 C95.63572979 46.73161722 104.84224238 63.17135456 109 81 C109.17225098 81.67740234 109.34450195 82.35480469 109.52197266 83.05273438 C111.29546104 90.70258096 111.39821699 98.30239782 111.375 106.125 C111.37418427 107.15779587 111.37418427 107.15779587 111.37335205 108.2114563 C111.33508053 118.74240082 110.61251357 128.06004703 107 138 C106.51294597 139.40752618 106.02597015 140.81507943 105.5390625 142.22265625 C103.12346747 149.0290503 100.44437037 155.64116239 97 162 C85.68490054 162.85396977 76.59510786 158.03489379 68 151 C55.76361904 140.37102541 45.51015248 124.1765382 43 108 C42.27039063 108.60585937 41.54078125 109.21171875 40.7890625 109.8359375 C21.51850779 125.45509668 -1.72755131 136.02789577 -26 141 C-26.877771 141.18618896 -27.75554199 141.37237793 -28.65991211 141.56420898 C-40.59113113 143.7591629 -52.76480494 143.33356311 -64.85375977 143.30541992 C-84.37867674 143.28807565 -102.1256117 145.84503154 -117.25 159.5625 C-123.40808449 166.1439528 -127.44260406 174.68649058 -131.3125 182.75 C-133 186 -133 186 -136 188 C-139.54892494 188.32262954 -142.02881982 188.53450039 -145.19360352 186.79272461 C-147 185 -147 185 -147.51147461 182.68969727 C-147.38772354 175.5620247 -146.00438192 169.61325156 -143.5625 162.9375 C-143.23701172 162.00228516 -142.91152344 161.06707031 -142.57617188 160.10351562 C-140.28484413 153.56968826 -140.28484413 153.56968826 -139 151 C-139.66386719 150.87882813 -140.32773438 150.75765625 -141.01171875 150.6328125 C-152.55855856 148.44144144 -152.55855856 148.44144144 -155 146 C-156.20568586 122.79054726 -152.54809131 102.9279012 -137 85 C-135.88625 83.5459375 -135.88625 83.5459375 -134.75 82.0625 C-133 80 -133 80 -130 78 C-133.3 77.34 -136.6 76.68 -140 76 C-141.35704933 71.92885201 -140.14289532 70.41434153 -138.359375 66.6640625 C-131.43335807 53.0906615 -124.2687183 44.61411683 -111 37 C-110.19691406 36.5359375 -109.39382812 36.071875 -108.56640625 35.59375 C-96.11887888 28.88966301 -82.95522169 26.82771331 -69 27 C-71.64 21.72 -74.28 16.44 -77 11 C-58.11106699 3.91665012 -38.29958229 3.34876275 -19.55859375 11.49609375 C-15.06154859 13.66614803 -10.92608377 15.90142803 -7 19 C-6.82984375 18.46632813 -6.6596875 17.93265625 -6.484375 17.3828125 C-4.56512925 11.48215269 -2.34876424 5.74149976 0 0 Z " fill="#F61C55" transform="translate(277,37)"/>
<path d="M0 0 C16.8929385 -0.55353075 16.8929385 -0.55353075 24 3 C24.11214844 4.18916016 24.11214844 4.18916016 24.2265625 5.40234375 C25.38314995 15.66422258 27.69611593 25.49664401 30.171875 35.51171875 C31.5262091 41.00305022 32.8195078 46.5055144 34.078125 52.01953125 C34.25860886 52.81020996 34.43909271 53.60088867 34.62504578 54.41552734 C34.99795007 56.05021225 35.37076685 57.68491712 35.74349976 59.31964111 C39.77320891 76.97428429 44.08725694 94.54601977 48.51922607 112.10334778 C50.03097954 118.10135386 51.50215709 124.10828139 52.9375 130.125 C53.12473633 130.90504395 53.31197266 131.68508789 53.50488281 132.48876953 C57 147.24992334 57 147.24992334 57 153 C57.66 153 58.32 153 59 153 C59.04535889 152.39631592 59.09071777 151.79263184 59.13745117 151.1706543 C59.67855893 144.88156429 60.78520233 138.93085676 62.3125 132.8125 C62.65015381 131.42708008 62.65015381 131.42708008 62.99462891 130.01367188 C64.22731777 124.99205915 65.52042124 119.99024468 66.875 115 C69.53185095 105.17486101 71.86048309 95.27027475 74.23027039 85.37281799 C75.61347001 79.6001034 77.00696294 73.82990823 78.40275574 68.06022644 C79.5779861 63.20197189 80.75158 58.34332258 81.92507935 53.48464966 C82.51356233 51.04950509 83.10264685 48.6145058 83.69235229 46.17965698 C84.53243186 42.71005985 85.36998797 39.23986196 86.20703125 35.76953125 C86.45887177 34.73190643 86.71071228 33.69428162 86.97018433 32.62521362 C89.95804126 20.36399335 89.95804126 20.36399335 91.625 7.875 C91.69976562 6.94429688 91.77453125 6.01359375 91.8515625 5.0546875 C91.92503906 4.03761719 91.92503906 4.03761719 92 3 C99.80563342 -0.90281671 107.48792953 -0.27891493 116 0 C115.52013969 5.56890517 114.70084819 10.67067568 113 16 C113.53625 16.0515625 114.0725 16.103125 114.625 16.15625 C127.81762127 18.06570834 139.78344839 25.81642156 150 34 C150.63035156 34.47824219 151.26070312 34.95648438 151.91015625 35.44921875 C168.34186173 48.51223746 178.0961394 69.08278157 183 89 C183.17869629 89.68022217 183.35739258 90.36044434 183.54150391 91.0612793 C184.22024415 95.4116501 184.12187981 99.71733114 184.09765625 104.11328125 C184.09553383 105.56760811 184.09553383 105.56760811 184.09336853 107.05131531 C184.08778513 110.13840867 184.07523564 113.22542867 184.0625 116.3125 C184.05748286 118.40950416 184.05292032 120.50650946 184.04882812 122.60351562 C184.03782112 127.73570521 184.02056788 132.86784018 184 138 C174.4833168 143.16630019 165.03880855 148.17634532 154.9375 152.125 C153.88731689 152.5389502 152.83713379 152.95290039 151.75512695 153.37939453 C121.40746945 165.08171585 90.79397086 170.43594552 58.375 170.3125 C57.35709381 170.31034485 56.33918762 170.3081897 55.29043579 170.30596924 C40.68136477 170.25629854 26.34924147 170.00540191 12 167 C10.53771973 166.70198486 10.53771973 166.70198486 9.04589844 166.39794922 C-17.91708936 160.75777549 -44.10170636 151.84058317 -68 138 C-68.05036085 133.18434077 -68.08616083 128.36884288 -68.10986328 123.55297852 C-68.11976961 121.92306847 -68.1332984 120.29317542 -68.15087891 118.66333008 C-68.24196558 109.98598465 -68.12233297 101.42198064 -67.12890625 92.79296875 C-67.0142955 91.78472801 -67.0142955 91.78472801 -66.89736938 90.75611877 C-63.88861446 67.33944774 -49.25211291 45.83035812 -30.8671875 31.48828125 C-20.74794781 24.1661287 -9.452738 17.96622179 3 16 C2.7834375 15.26394531 2.566875 14.52789062 2.34375 13.76953125 C2.0653125 12.79371094 1.786875 11.81789063 1.5 10.8125 C1.2215625 9.84957031 0.943125 8.88664062 0.65625 7.89453125 C0.03322392 5.14654124 -0.12302812 2.80401584 0 0 Z " fill="#D7D3CD" transform="translate(198,342)"/>
<path d="M0 0 C0.00808685 0.69998108 0.01617371 1.39996216 0.02450562 2.12115479 C0.10296183 8.76925816 0.19039874 15.4171786 0.28752708 22.06503677 C0.33713664 25.48146891 0.3834645 28.89787527 0.421875 32.31445312 C0.46634728 36.25667596 0.52584445 40.19860826 0.5859375 44.140625 C0.59748871 45.34736877 0.60903992 46.55411255 0.62094116 47.79742432 C0.7505825 55.36787403 1.53034472 62.57166083 3 70 C3.7425 69.21625 4.485 68.4325 5.25 67.625 C8.81803516 64.21914825 10.46381402 63.14223944 15.375 62.6875 C20.67597317 63.14448045 23.74529297 64.60964897 27.3125 68.5625 C30.40556343 73.03025829 30.65814288 76.64470043 30 82 C27.34641502 87.11762818 24.46882174 90.17705942 19 92 C15.31617231 92.13156527 12.50946415 92.16982138 9 91 C14.52081718 102.06597812 20.03366024 112.47441225 28 122 C28.68320313 122.845625 29.36640625 123.69125 30.0703125 124.5625 C39.75613393 135.99963232 51.86842275 144.04506628 65 151 C66.05380859 151.59554687 66.05380859 151.59554687 67.12890625 152.203125 C80.45132564 159.45420423 96.14435112 163.78721312 111 160 C112.33322632 159.66623891 113.66654265 159.33283686 115 159 C115.78563589 169.07747765 113.41451084 178.23551459 111.0625 187.9375 C110.6544343 189.65987628 110.24722202 191.38245495 109.84082031 193.10522461 C106.71051581 206.30914714 103.42145393 219.47468123 100.09594727 232.63061523 C97.92911842 241.21050491 95.86588925 249.803391 93.9609375 258.44555664 C91.54173641 269.2812163 88.76588017 280.03298362 86.03320312 290.79296875 C85.84083069 291.55399902 85.64845825 292.3150293 85.45025635 293.09912109 C85.08822715 294.53097047 84.72422328 295.96232263 84.35784912 297.39306641 C83.38568431 301.24308237 82.59498978 305.07398046 82 309 C81.34 309 80.68 309 80 309 C77.4921875 298.55078125 74.984375 288.1015625 72.4765625 277.65234375 C72.23268799 276.6363208 71.98881348 275.62029785 71.73754883 274.57348633 C71.2397693 272.49915782 70.74221604 270.42477501 70.24487305 268.3503418 C69.03689959 263.31302621 67.82578471 258.27652831 66.60546875 253.2421875 C63.0769482 238.65763589 59.682636 224.04391003 56.33691406 209.41650391 C54.64626023 202.03815166 52.93869107 194.66864654 51.08984375 187.328125 C50.80753906 186.19955078 50.52523437 185.07097656 50.234375 183.90820312 C49.7260576 181.89362166 49.20756706 179.88156098 48.67578125 177.87304688 C47.0701128 171.491899 46.72244041 165.56970115 47 159 C46.33049316 158.86255371 45.66098633 158.72510742 44.97119141 158.58349609 C20.16030961 153.2169421 -3.39307435 133.12274068 -17 112.3515625 C-19.97430604 107.36727621 -22.72426992 102.2818571 -25.37109375 97.1171875 C-26.953151 93.95514541 -26.953151 93.95514541 -29 91 C-29.48726562 91.28875 -29.97453125 91.5775 -30.4765625 91.875 C-38.06897954 95.85066565 -46.30847405 96.51207704 -54.6171875 94.3046875 C-56.89510885 93.36671988 -58.90636701 92.29586568 -61 91 C-61.69738281 90.5875 -62.39476563 90.175 -63.11328125 89.75 C-69.80872158 85.31159135 -74.03628235 78.75800974 -76.4375 71.125 C-78.18343911 62.34185735 -76.39749163 53.56052488 -71.78515625 46.01171875 C-67.08617112 39.09991514 -60.28010802 33.80002348 -52 32 C-49.66787973 31.92477031 -47.3314689 31.90674124 -45 32 C-44.71125 32.804375 -44.4225 33.60875 -44.125 34.4375 C-43.26737432 37.1326468 -43.26737432 37.1326468 -41 38 C-37.32670036 38.13357453 -34.50147041 38.1671568 -31 37 C-30.26356605 35.02462422 -29.60882456 33.01836 -29 31 C-24.66695535 21.5417197 -12.74489883 0 0 0 Z " fill="#E9A17F" transform="translate(175,186)"/>
<path d="M0 0 C13.41027047 0.45613165 26.95505608 9.95388134 37 18 C37.63035156 18.47824219 38.26070313 18.95648438 38.91015625 19.44921875 C55.34186173 32.51223746 65.0961394 53.08278157 70 73 C70.17869629 73.68022217 70.35739258 74.36044434 70.54150391 75.0612793 C71.22024415 79.4116501 71.12187981 83.71733114 71.09765625 88.11328125 C71.0962413 89.08283249 71.09482635 90.05238373 71.09336853 91.05131531 C71.08778513 94.13840867 71.07523564 97.22542867 71.0625 100.3125 C71.05748286 102.40950416 71.05292032 104.50650946 71.04882812 106.60351562 C71.03782112 111.73570521 71.02056788 116.86784018 71 122 C61.4833168 127.16630019 52.03880855 132.17634532 41.9375 136.125 C40.88731689 136.5389502 39.83713379 136.95290039 38.75512695 137.37939453 C17.14644589 145.71189034 -7.1052737 153.28744929 -30.5 153.0625 C-31.7271875 153.05347656 -32.954375 153.04445313 -34.21875 153.03515625 C-35.1365625 153.02355469 -36.054375 153.01195312 -37 153 C-34.25860886 139.59934496 -31.23183772 126.29026409 -28 113 C-27.66470205 111.62011998 -27.32941636 110.24023698 -26.99414062 108.86035156 C-25.45525815 102.52842784 -23.91507856 96.19682074 -22.37280273 89.86572266 C-19.95367853 79.93371142 -17.55023829 69.99815414 -15.17041016 60.05664062 C-12.97662324 50.8928359 -10.76499301 41.73337672 -8.54785156 32.57519531 C-7.17499951 26.89776797 -5.8117875 21.21857339 -4.48046875 15.53125 C-4.24980713 14.54866211 -4.01914551 13.56607422 -3.78149414 12.55371094 C-3.35436867 10.72957227 -2.93021788 8.90473366 -2.50952148 7.07910156 C-1.11062103 1.11062103 -1.11062103 1.11062103 0 0 Z " fill="#F1EEE9" transform="translate(311,358)"/>
<path d="M0 0 C1.828125 1.68359375 1.828125 1.68359375 3 3 C2.01 2.835 1.02 2.67 0 2.5 C-10.78483628 1.21882264 -20.53067296 1.1183022 -30.7421875 5.125 C-33 6 -33 6 -35 6 C-34.6390625 6.69867188 -34.278125 7.39734375 -33.90625 8.1171875 C-33.21015625 9.48230469 -33.21015625 9.48230469 -32.5 10.875 C-31.80390625 12.23238281 -31.80390625 12.23238281 -31.09375 13.6171875 C-30 16 -30 16 -30 18 C-30.99966797 18.29390625 -30.99966797 18.29390625 -32.01953125 18.59375 C-44.97280015 22.79676872 -53.98065068 30.21985572 -60.3125 42.1875 C-61.69115787 45.08783004 -62.59861037 47.78888296 -63 51 C-62.195625 50.835 -61.39125 50.67 -60.5625 50.5 C-56.34112648 49.90752652 -52.25335455 49.91493291 -48 50 C-51.31188765 52.65276505 -54.83816147 54.60262176 -58.5625 56.625 C-67.79773185 61.79866392 -78.07512238 68.27036372 -83 78 C-83.66 80.64 -84.32 83.28 -85 86 C-73.45 86 -61.9 86 -50 86 C-51.43643804 88.87287608 -53.20781213 88.99925267 -56.1875 90.125 C-76.16703951 98.26831942 -92.19155551 110.19553997 -101.03125 130.33984375 C-101.93043063 132.80896475 -102.41645724 135.03722062 -102.8125 137.625 C-103.53157368 141.39848759 -104.81439785 143.15187447 -107.5 145.875 C-112.54653645 151.03224658 -115.43088219 157.1143816 -118.5859375 163.52490234 C-118.98683594 164.33008301 -119.38773438 165.13526367 -119.80078125 165.96484375 C-120.15309814 166.6930835 -120.50541504 167.42132324 -120.8684082 168.17163086 C-122 170 -122 170 -125 172 C-128.54892494 172.32262954 -131.02881982 172.53450039 -134.19360352 170.79272461 C-136 169 -136 169 -136.51147461 166.68969727 C-136.38772354 159.5620247 -135.00438192 153.61325156 -132.5625 146.9375 C-132.23701172 146.00228516 -131.91152344 145.06707031 -131.57617188 144.10351562 C-129.28484413 137.56968826 -129.28484413 137.56968826 -128 135 C-128.66386719 134.87882813 -129.32773438 134.75765625 -130.01171875 134.6328125 C-141.55855856 132.44144144 -141.55855856 132.44144144 -144 130 C-145.20568586 106.79054726 -141.54809131 86.9279012 -126 69 C-124.88625 67.5459375 -124.88625 67.5459375 -123.75 66.0625 C-122 64 -122 64 -119 62 C-122.3 61.34 -125.6 60.68 -129 60 C-130.35704933 55.92885201 -129.14289532 54.41434153 -127.359375 50.6640625 C-120.43335807 37.0906615 -113.2687183 28.61411683 -100 21 C-99.19691406 20.5359375 -98.39382812 20.071875 -97.56640625 19.59375 C-85.11887888 12.88966301 -71.95522169 10.82771331 -58 11 C-60.64 5.72 -63.28 0.44 -66 -5 C-44.01259994 -13.24527502 -20.41215863 -12.50745014 0 0 Z " fill="#DC104F" transform="translate(266,53)"/>
<path d="M0 0 C2.69068464 2.69068464 3.07508778 5.60549936 3.91796875 9.19921875 C4.09585434 9.93328949 4.27373993 10.66736023 4.45701599 11.42367554 C5.04106209 13.84327924 5.61444018 16.26527282 6.1875 18.6875 C6.59188043 20.37371365 6.99666975 22.05982929 7.40185547 23.74584961 C10.19965262 35.43181139 12.86362122 47.14542178 15.47314453 58.87475586 C17.37306984 67.36831308 19.42025607 75.81451026 21.5625 84.25 C23.98591761 93.80528682 26.28306946 103.38027718 28.4375 113 C28.69668213 114.14629883 28.95586426 115.29259766 29.22290039 116.47363281 C29.4574292 117.53420898 29.69195801 118.59478516 29.93359375 119.6875 C30.14040771 120.61949219 30.34722168 121.55148437 30.56030273 122.51171875 C31 125 31 125 31 129 C15.55272527 129.7487907 0.87055264 126.60691095 -14.0625 122.9375 C-15.11606689 122.6801709 -16.16963379 122.4228418 -17.25512695 122.15771484 C-18.23441162 121.90844238 -19.21369629 121.65916992 -20.22265625 121.40234375 C-21.09672119 121.18054443 -21.97078613 120.95874512 -22.87133789 120.73022461 C-25 120 -25 120 -27 118 C-27.24723816 115.46629333 -27.24723816 115.46629333 -27.24291992 112.22436523 C-27.24599655 111.0122789 -27.24907318 109.80019257 -27.25224304 108.55137634 C-27.24505753 107.23375809 -27.23787201 105.91613983 -27.23046875 104.55859375 C-27.22927603 103.192958 -27.22882398 101.82732142 -27.2290802 100.46168518 C-27.22751378 97.59248753 -27.21921891 94.72341435 -27.20581055 91.85424805 C-27.1889328 88.19844629 -27.18499305 84.54278281 -27.18575573 80.88694668 C-27.18548186 78.06171884 -27.17996429 75.2365205 -27.17275429 72.41130257 C-27.16807085 70.41462182 -27.16630123 68.41793491 -27.16459656 66.42124939 C-27.02869551 40.13185142 -17.62980087 19.24449292 0 0 Z " fill="#F1EEE9" transform="translate(206,382)"/>
<path d="M0 0 C15.18 0 30.36 0 46 0 C45.29112666 7.79760675 44.32740011 14.41835306 42.25 21.8125 C40.23707359 29.24231135 38.34013902 36.66928809 36.6875 44.1875 C34.0527908 56.11675287 31.04078708 67.95005973 28.03393555 79.78979492 C27.84145737 80.55128342 27.64897919 81.31277191 27.45066833 82.09733582 C27.08849679 83.52984897 26.72434256 84.96186295 26.35780334 86.39326477 C25.38564722 90.24321295 24.59497953 94.07404812 24 98 C23.34 98 22.68 98 22 98 C19.4921875 87.55078125 16.984375 77.1015625 14.4765625 66.65234375 C14.11014648 65.12577148 14.11014648 65.12577148 13.73632812 63.56835938 C13.24264183 61.5111149 12.74915446 59.45382269 12.25585938 57.39648438 C10.98511045 52.09782633 9.71067863 46.8000982 8.4296875 41.50390625 C6.11630515 31.92999575 3.81101672 22.35392669 1.625 12.75 C1.45726074 12.02949463 1.28952148 11.30898926 1.11669922 10.56665039 C0.28815514 6.86948474 0 3.8455078 0 0 Z " fill="#F61E56" transform="translate(233,397)"/>
<path d="M0 0 C2.67487649 6.24137847 3.41929495 11.10282368 2 17.765625 C1 20 1 20 -0.8125 21.171875 C-2.22552957 21.63942155 -3.65242148 22.06702973 -5.08984375 22.453125 C-7.15589122 22.90939237 -7.15589122 22.90939237 -9 24.625 C-10.59676513 28.41731719 -10.76394874 31.96404437 -10 36 C-7.53515647 39.40728371 -6.04906964 40.75780408 -1.9375 41.70703125 C1 43 1 43 2.2421875 46.046875 C2.45101562 47.26890625 2.65984375 48.4909375 2.875 49.75 C3.21144531 51.56757813 3.21144531 51.56757813 3.5546875 53.421875 C3.95834666 56.66531179 4.09008275 59.73700274 4 63 C-6.48768615 63.70571346 -13.88925666 61.35325222 -22.14453125 54.828125 C-27.39880506 49.65128259 -31.39361373 42.42164071 -32 35 C-31.97144456 24.33454448 -29.3694433 15.86392975 -22 8 C-15.11019145 2.4066608 -8.98396883 -0.35935875 0 0 Z " fill="#F4B896" transform="translate(130,218)"/>
<path d="M0 0 C1.08384727 0.00848969 1.08384727 0.00848969 2.18959045 0.01715088 C4.47215211 0.03934243 6.75307823 0.08949951 9.03515625 0.140625 C10.59307611 0.16071256 12.15102085 0.17895936 13.70898438 0.1953125 C17.50582775 0.2391497 21.30146582 0.30805079 25.09765625 0.390625 C18.86840724 30.61987401 18.86840724 30.61987401 17.09765625 32.390625 C14.64935199 32.47906293 12.22945026 32.50591252 9.78125 32.48828125 C9.05019547 32.4868663 8.31914093 32.48545135 7.56593323 32.48399353 C5.22229993 32.47837908 2.87876086 32.46582422 0.53515625 32.453125 C-1.05012883 32.44811186 -2.63541541 32.44354863 -4.22070312 32.43945312 C-8.11461985 32.42840497 -12.0084658 32.41113072 -15.90234375 32.390625 C-16.39914993 30.66836357 -16.88858479 28.94397493 -17.375 27.21875 C-17.64836182 26.2587207 -17.92172363 25.29869141 -18.20336914 24.30957031 C-19.57961202 18.5623262 -20.01200497 12.92905506 -17.33984375 7.515625 C-12.56850443 1.3985233 -7.54540318 -0.22717605 0 0 Z " fill="#F5B997" transform="translate(262.90234375,363.609375)"/>
<path d="M0 0 C0.33 0 0.66 0 1 0 C1.33 6.27 1.66 12.54 2 19 C3.32 19.33 4.64 19.66 6 20 C5.67 20.33 5.34 20.66 5 21 C5.3419549 31.34297131 5.3419549 31.34297131 10.1015625 39.875 C12.3843973 40.76731328 14.62474958 41.40729319 17 42 C19.3772996 43.94506331 19.86492332 45.07870781 20.3046875 48.078125 C20.5320605 52.11733952 20.35260252 54.40813149 18.25 57.9375 C14.63697567 61.24943897 12.97034428 62 8 62 C7.93941406 62.60585938 7.87882812 63.21171875 7.81640625 63.8359375 C7.2109375 69.890625 6.60546875 75.9453125 6 82 C4.80375 81.9175 3.6075 81.835 2.375 81.75 C1.70210938 81.70359375 1.02921875 81.6571875 0.3359375 81.609375 C-2.93151683 80.75699561 -5.27704856 78.95053828 -8 77 C-7.823479 76.40050537 -7.64695801 75.80101074 -7.46508789 75.18334961 C-6.65924394 72.43616635 -5.86082421 69.68687744 -5.0625 66.9375 C-4.78470703 65.99455078 -4.50691406 65.05160156 -4.22070312 64.08007812 C-3.95322266 63.15517578 -3.68574219 62.23027344 -3.41015625 61.27734375 C-3.16402588 60.43421631 -2.91789551 59.59108887 -2.66430664 58.72241211 C-0.95277563 51.70834293 -0.79942668 44.77591253 -0.68359375 37.59765625 C-0.66281265 36.51995468 -0.64203156 35.44225311 -0.62062073 34.33189392 C-0.55553839 30.90882388 -0.49643327 27.48568088 -0.4375 24.0625 C-0.39427545 21.73371659 -0.35065993 19.4049404 -0.30664062 17.07617188 C-0.19989965 11.38419041 -0.09805853 5.69213731 0 0 Z " fill="#E8A180" transform="translate(373,199)"/>
<path d="M0 0 C4.63645601 2.32321344 7.33982815 5.45568496 9.06640625 10.34765625 C9.70920283 15.58185696 8.91915843 18.92097183 6.06640625 23.34765625 C1.4133978 27.54671266 -1.46659917 28.7138528 -7.6171875 28.625 C-12.48686666 28.04195241 -15.14617989 25.21795578 -18.30859375 21.72265625 C-20.51359309 17.14304223 -20.9898707 13.33738242 -19.93359375 8.34765625 C-15.64869252 0.81452345 -8.53222827 -2.87854974 0 0 Z " fill="#EAA27F" transform="translate(326.93359375,249.65234375)"/>
<path d="M0 0 C3.09256743 0.73505605 5.94202139 1.71669837 8.921875 2.81640625 C21.65244721 6.7838106 34.91268775 5.91894453 47.171875 0.75390625 C47.501875 0.42390625 47.831875 0.09390625 48.171875 -0.24609375 C54.891875 0.47390625 54.891875 0.47390625 56.171875 1.75390625 C56.734375 4.50390625 56.734375 4.50390625 56.171875 7.75390625 C49.36133234 14.95538641 36.95791429 16.86334252 27.47558594 17.22851562 C16.3073294 17.3516079 4.87325981 15.61910388 -4.52734375 9.1171875 C-5.828125 7.75390625 -5.828125 7.75390625 -6.515625 4.56640625 C-5.54315004 0.58809959 -4.06041212 -0.35332315 0 0 Z " fill="#EAA27F" transform="translate(230.828125,284.24609375)"/>
<path d="M0 0 C3.45798676 2.43630885 5.49990489 4.92484902 6.75 8.9375 C7.17363219 13.88552399 6.51634355 16.98965403 3.375 20.875 C-1.37844064 24.60984622 -3.88636369 25.38792676 -9.80859375 25.25 C-13.34989018 24.79671406 -14.92756101 23.61182368 -17.25 20.9375 C-20.095108 16.52267724 -20.90293024 13.16094192 -20.25 7.9375 C-15.73426036 -0.75948004 -9.11350655 -2.9794156 0 0 Z " fill="#363C3F" transform="translate(219.25,219.0625)"/>
<path d="M0 0 C3.36637548 2.29525601 4.92706799 4.22913599 6.75 7.875 C7.62159882 13.86724187 6.14453687 17.10429953 2.75 21.875 C-1.03255382 25.32379907 -4.95730242 25.39085371 -9.87890625 25.22265625 C-13.3637483 24.71169918 -14.95813824 23.51411354 -17.25 20.875 C-19.83865384 16.76885942 -20.9413085 13.71415951 -20.25 8.875 C-18.78685583 5.19354047 -17.00564966 2.52569832 -14 -0.0625 C-9.0105807 -1.99023018 -4.92600955 -1.70515715 0 0 Z " fill="#363C3F" transform="translate(306.25,219.125)"/>
<path d="M0 0 C3.93784847 2.33809753 6.64263722 5.27223248 8.5625 9.4375 C9.20377058 12.17007838 9.41396308 14.61529851 9.5625 17.4375 C6.5925 17.7675 3.6225 18.0975 0.5625 18.4375 C0.2325 17.4475 -0.0975 16.4575 -0.4375 15.4375 C-5.97450947 12.87156878 -11.50471554 12.6263043 -17.375 14.25 C-19.76881686 15.32417752 -19.76881686 15.32417752 -20.4375 18.4375 C-23.4075 18.1075 -26.3775 17.7775 -29.4375 17.4375 C-29.10267692 11.07586153 -27.9232895 7.06383643 -23.4375 2.4375 C-16.70664905 -2.9197079 -7.9076252 -3.45958603 0 0 Z " fill="#E9A17F" transform="translate(309.4375,205.5625)"/>
<path d="M0 0 C3.93784847 2.33809753 6.64263722 5.27223248 8.5625 9.4375 C9.20377058 12.17007838 9.41396308 14.61529851 9.5625 17.4375 C6.5925 17.7675 3.6225 18.0975 0.5625 18.4375 C0.2325 17.4475 -0.0975 16.4575 -0.4375 15.4375 C-5.2026067 13.22927982 -9.29340809 13.02923874 -14.4375 13.4375 C-17.35677604 14.8336755 -19.15952996 16.15952996 -21.4375 18.4375 C-24.16619407 18.40462417 -26.7341618 17.87352229 -29.4375 17.4375 C-29.10267692 11.07586153 -27.9232895 7.06383643 -23.4375 2.4375 C-16.70664905 -2.9197079 -7.9076252 -3.45958603 0 0 Z " fill="#E9A17F" transform="translate(222.4375,205.5625)"/>
<path d="M0 0 C0.65073486 -0.00524185 1.30146973 -0.0104837 1.97192383 -0.0158844 C3.34357276 -0.02228907 4.71527674 -0.02098767 6.08691406 -0.01245117 C8.18133521 -0.00393133 10.27303497 -0.03273099 12.3671875 -0.06445312 C13.70312419 -0.06606517 15.03906568 -0.06548753 16.375 -0.0625 C18.19064453 -0.06527954 18.19064453 -0.06527954 20.04296875 -0.06811523 C23.76905979 0.52638143 24.99134779 1.40671419 27.1875 4.43359375 C27.125 7.55859375 27.125 7.55859375 26.1875 10.43359375 C21.41137255 13.61767871 15.94870371 12.8055031 10.36352539 12.80419922 C8.26040644 12.80857211 6.15938824 12.84489854 4.05664062 12.8828125 C2.71615299 12.88868125 1.37565541 12.89265025 0.03515625 12.89453125 C-1.18163818 12.90274902 -2.39843262 12.9109668 -3.65209961 12.91943359 C-7.39596425 12.34389936 -8.56274941 11.42435401 -10.8125 8.43359375 C-11.3125 5.87109375 -11.3125 5.87109375 -10.8125 3.43359375 C-7.4810652 0.06112395 -4.6105156 0.03713208 0 0 Z " fill="#EAA380" transform="translate(247.8125,252.56640625)"/>
<path d="M0 0 C2.26912204 3.92521514 2.39572016 7.40692173 2.65625 11.85546875 C2.82640625 12.91701172 2.82640625 12.91701172 3 14 C3.66 14.33 4.32 14.66 5 15 C3.35 20.28 1.7 25.56 0 31 C-2.64 31 -5.28 31 -8 31 C-7.02452635 26.90582269 -6.04585821 22.81242642 -5.06420898 18.71972656 C-4.73064449 17.32703392 -4.39795724 15.93413086 -4.06616211 14.54101562 C-3.58937813 12.53980574 -3.109455 10.53937123 -2.62890625 8.5390625 C-2.34088135 7.33459473 -2.05285645 6.13012695 -1.75610352 4.88916016 C-1 2 -1 2 0 0 Z " fill="#CAC3BF" transform="translate(252,481)"/>
<path d="M0 0 C1.875 1.0625 1.875 1.0625 3 3 C2.8125 6.625 2.8125 6.625 2 10 C-0.76250036 11.38125018 -2.94731099 11.19079306 -6 11 C-8 9 -8 9 -8.3125 6.0625 C-8 3 -8 3 -6.8125 1.125 C-4.34492892 -0.40659584 -2.85480169 -0.42822025 0 0 Z " fill="#F5F5F5" transform="translate(220,223)"/>
<path d="M0 0 C2.9375 0.8125 2.9375 0.8125 4.9375 3.8125 C4.6133631 7.13490324 4.32973697 8.42026303 1.9375 10.8125 C-1.0625 11.0625 -1.0625 11.0625 -4.0625 10.8125 C-6.0625 8.8125 -6.0625 8.8125 -6.375 5.3125 C-6.271875 4.1575 -6.16875 3.0025 -6.0625 1.8125 C-3.0625 -0.1875 -3.0625 -0.1875 0 0 Z " fill="#F4F5F5" transform="translate(306.0625,223.1875)"/>
</svg>